<svg width="28" height="20" viewBox="0 0 28 20" fill="none" xmlns="http://www.w3.org/2000/svg">
<path d="M2.82635 0C1.26525 0 0 1.22091 0 2.72726C0 4.2336 1.26525 5.45456 2.82635 5.45456C4.3874 5.45456 5.65265 4.23365 5.65265 2.72726C5.65265 1.22087 4.3874 0 2.82635 0ZM2.82635 7.2727C1.26525 7.2727 0 8.49365 0 10C0 11.5064 1.26525 12.7273 2.82635 12.7273C4.3874 12.7273 5.65265 11.5064 5.65265 10C5.65265 8.49365 4.3874 7.2727 2.82635 7.2727ZM2.82635 14.5455C1.26525 14.5455 0 15.7664 0 17.2727C0 18.7791 1.26525 20 2.82635 20C4.3874 20 5.65265 18.7791 5.65265 17.2727C5.65265 15.7664 4.3874 14.5455 2.82635 14.5455ZM10.3632 4.54544H25.4368C26.4779 4.54544 27.3211 3.73179 27.3211 2.72726C27.3211 1.72273 26.4779 0.909071 25.4368 0.909071H10.3632C9.32215 0.909071 8.47895 1.72273 8.47895 2.72726C8.47895 3.73179 9.32215 4.54544 10.3632 4.54544ZM25.4368 8.18181H10.3632C9.32215 8.18181 8.47895 8.99547 8.47895 10C8.47895 11.0045 9.32215 11.8182 10.3632 11.8182H25.4368C26.4779 11.8182 27.3211 11.0045 27.3211 10C27.3211 8.99547 26.4779 8.18181 25.4368 8.18181ZM25.4368 15.4546H10.3632C9.32215 15.4546 8.47895 16.2682 8.47895 17.2727C8.47895 18.2772 9.32215 19.0909 10.3632 19.0909H25.4368C26.4779 19.0909 27.3211 18.2772 27.3211 17.2727C27.3211 16.2682 26.4779 15.4546 25.4368 15.4546Z" fill="#EFEFEF"/>
</svg>
