<svg width="23" height="20" viewBox="0 0 23 20" fill="none" xmlns="http://www.w3.org/2000/svg">
<path d="M16.6372 0C15.4078 0 14.2808 0.389557 13.2873 1.15788C12.3349 1.89447 11.7008 2.83265 11.3274 3.51487C10.9541 2.83261 10.32 1.89447 9.36757 1.15788C8.37411 0.389557 7.24704 0 6.0177 0C2.58708 0 0 2.80606 0 6.52717C0 10.5473 3.22757 13.2977 8.11367 17.4616C8.94341 18.1687 9.88389 18.9702 10.8614 19.825C10.9903 19.9379 11.1558 20 11.3274 20C11.4991 20 11.6646 19.9379 11.7935 19.8251C12.7711 18.9701 13.7115 18.1687 14.5417 17.4612C19.4273 13.2977 22.6549 10.5473 22.6549 6.52717C22.6549 2.80606 20.0678 0 16.6372 0Z" fill="#EFEFEF"/>
</svg>
