<svg id="light" enable-background="new 0 0 24 24" height="512" viewBox="0 0 24 24" width="512" xmlns="http://www.w3.org/2000/svg"><g><path d="m19.26 21.41c-.146 0-.289-.063-.389-.185-.174-.214-.141-.529.074-.703 2.576-2.09 4.055-5.196 4.055-8.522 0-6.065-4.935-11-11-11s-11 4.935-11 11c0 3.316 1.475 6.419 4.046 8.512.215.174.247.489.072.703-.175.215-.489.247-.703.072-2.806-2.283-4.415-5.668-4.415-9.287 0-6.617 5.383-12 12-12s12 5.383 12 12c0 3.629-1.613 7.018-4.426 9.298-.092.076-.203.112-.314.112z"/></g><g><path d="m6.5 12c-.161 0-.319-.078-.416-.223-.153-.23-.091-.54.139-.693l2.376-1.584-2.376-1.584c-.23-.153-.292-.463-.139-.693.154-.23.465-.291.693-.139l3 2c.139.093.223.249.223.416s-.084.323-.223.416l-3 2c-.085.057-.181.084-.277.084z"/></g><g><path d="m17.5 12c-.096 0-.192-.027-.277-.084l-3-2c-.139-.093-.223-.249-.223-.416s.084-.323.223-.416l3-2c.228-.152.539-.092.693.139.153.23.091.54-.139.693l-2.376 1.584 2.376 1.584c.229.153.292.463.139.693-.097.145-.255.223-.416.223z"/></g><g><path d="m17 18.77h-2.5c-.276 0-.5-.224-.5-.5s.224-.5.5-.5h1.736c-.454-.854-1.154-1.549-2.024-1.995-1.359-.726-3.055-.731-4.477.026-.845.451-1.526 1.137-1.971 1.969h1.736c.276 0 .5.224.5.5s-.224.5-.5.5h-2.5c-.162 0-.314-.079-.408-.211-.094-.133-.117-.302-.063-.455.482-1.369 1.454-2.5 2.736-3.185 1.714-.914 3.773-.905 5.411-.03 1.308.67 2.303 1.813 2.796 3.215.054.153.03.323-.063.455s-.247.211-.409.211z"/></g><g><path d="m19.356 24h-14.714c-.501 0-.966-.249-1.245-.666-.281-.42-.335-.951-.142-1.419 1.025-2.498 4.349-2.248 5.745-2.023v-4.534c0-.276.224-.5.5-.5s.5.224.5.5v5.142c0 .154-.071.299-.192.394-.12.096-.28.129-.428.092-.042-.01-4.244-1.016-5.2 1.311-.067.162-.05.337.048.482.094.14.245.221.414.221h14.715c.169 0 .321-.082.416-.223.097-.145.113-.32.047-.481-.956-2.309-5.15-1.259-5.194-1.25-.149.039-.31.006-.431-.089-.124-.094-.195-.24-.195-.395v-5.201c0-.276.224-.5.5-.5s.5.224.5.5v4.587c1.398-.24 4.714-.52 5.743 1.964.193.467.142.998-.14 1.419-.279.419-.745.669-1.247.669z"/></g></svg>