<svg width="23" height="23" viewBox="0 0 23 23" fill="none" xmlns="http://www.w3.org/2000/svg">
<path d="M16.0235 13.6482C18.8396 9.74954 17.8978 4.35109 13.9212 1.59085C9.94456 -1.16938 4.43812 -0.246667 1.62267 3.65262C-1.19277 7.55124 -0.251601 12.949 3.72568 15.7093C6.564 17.6794 10.3166 17.8311 13.3103 16.0977L19.8151 22.4367C20.5175 23.1616 21.686 23.1906 22.4254 22.502C23.1647 21.8141 23.1943 20.6685 22.4926 19.9436C22.4704 19.9205 22.4489 19.8994 22.4254 19.8777L16.0235 13.6482ZM8.81771 14.2391C5.6753 14.2398 3.12761 11.744 3.12559 8.66325C3.12492 5.58247 5.67059 3.08474 8.81367 3.08342C11.952 3.0821 14.4984 5.5739 14.5044 8.65072C14.5098 11.7322 11.9655 14.2338 8.82174 14.2391C8.8204 14.2391 8.81973 14.2391 8.81771 14.2391Z" fill="#6E7071"/>
</svg>
