<svg width="16" height="20" viewBox="0 0 16 20" fill="none" xmlns="http://www.w3.org/2000/svg">
<path d="M15.1311 5.66406C15.5446 5.66406 15.8313 5.24605 15.6762 4.86273C15.1257 3.50176 13.7905 2.53906 12.2345 2.53906H11.5152C11.2469 1.12215 10.0046 0 8.48446 0H7.23446C5.71528 0 4.47215 1.12141 4.20375 2.53906H3.48446C1.92844 2.53906 0.593206 3.50176 0.0426983 4.86273C-0.112341 5.24605 0.174339 5.66406 0.587816 5.66406H15.1311ZM7.23446 1.17188H8.48446C9.33992 1.17188 10.0661 1.74742 10.3105 2.53906H5.40836C5.65282 1.74742 6.37899 1.17188 7.23446 1.17188Z" fill="#5D5E61"/>
<path d="M2.19751 18.367C2.26271 19.2827 3.03291 20 3.95087 20H11.7681C12.6861 20 13.4563 19.2827 13.5215 18.367L14.3427 6.83594H1.37634L2.19751 18.367ZM9.46181 9.97074C9.47798 9.64754 9.75357 9.39828 10.0763 9.4148C10.3995 9.43098 10.6484 9.70609 10.6322 10.0293L10.3197 16.2793C10.304 16.5925 10.0451 16.8359 9.73497 16.8359C9.39759 16.8359 9.13263 16.5538 9.14927 16.2207L9.46181 9.97074ZM5.64275 9.4148C5.96552 9.39859 6.24107 9.64758 6.2572 9.97074L6.5697 16.2207C6.58634 16.5539 6.32119 16.8359 5.984 16.8359C5.67384 16.8359 5.41494 16.5925 5.39927 16.2793L5.08677 10.0293C5.07064 9.70609 5.31955 9.43098 5.64275 9.4148Z" fill="#5D5E61"/>
</svg>
